<svg xmlns="http://www.w3.org/2000/svg" width="256" height="256" viewBox="0 0 100 100"><rect width="100" height="100" rx="20" fill="#ed9e00"></rect><path fill="#fff" d="M16.23 35.78L16.23 64.22L26.33 64.22Q28.57 64.22 30.41 63.68Q32.25 63.14 33.55 62.11L33.55 62.11Q34.86 61.05 35.59 59.50Q36.31 57.95 36.31 55.90L36.31 55.90Q36.31 54.79 36.01 53.76Q35.70 52.73 35.08 51.88L35.08 51.88Q34.51 51.07 33.64 50.46Q32.77 49.84 31.45 49.47L31.45 49.47L31.45 49.45Q32.23 49.14 32.85 48.73Q33.48 48.32 33.96 47.79L33.96 47.79Q34.77 46.95 35.19 45.86Q35.61 44.77 35.63 43.52L35.63 43.52Q35.64 41.52 34.90 40.07Q34.16 38.61 32.81 37.66L32.81 37.66Q31.46 36.72 29.61 36.25Q27.75 35.78 25.55 35.78L25.55 35.78L16.23 35.78ZM21.35 60.08L21.35 51.52L26.60 51.52Q27.75 51.54 28.62 51.85Q29.49 52.15 30.06 52.71L30.06 52.71Q30.64 53.28 30.93 54.08Q31.21 54.88 31.19 55.88L31.19 55.88Q31.19 56.86 30.84 57.64Q30.49 58.42 29.84 58.98L29.84 58.98Q29.22 59.49 28.34 59.78Q27.46 60.06 26.37 60.08L26.37 60.08L21.35 60.08ZM25.63 47.75L21.35 47.75L21.35 39.96L25.59 39.96Q26.86 39.98 27.85 40.25Q28.85 40.53 29.47 41.11L29.47 41.11Q29.98 41.56 30.25 42.25Q30.53 42.93 30.53 43.87L30.53 43.87Q30.53 44.75 30.22 45.43Q29.92 46.11 29.38 46.58L29.38 46.58Q28.75 47.17 27.79 47.45Q26.84 47.73 25.63 47.75L25.63 47.75ZM45.43 57.99L54.18 57.99L55.96 64.22L61.27 64.22L52.17 35.78L47.60 35.78L38.30 64.22L43.63 64.22L45.43 57.99ZM52.95 53.63L46.70 53.63L49.86 42.77L52.95 53.63ZM83.75 55.39L83.75 55.39L78.65 55.39Q78.55 56.68 78.18 57.64Q77.81 58.59 77.19 59.22L77.19 59.22Q76.56 59.86 75.66 60.17Q74.77 60.47 73.61 60.47L73.61 60.47Q72.70 60.47 71.98 60.23Q71.27 60 70.68 59.55L70.68 59.55Q70.16 59.12 69.76 58.50Q69.36 57.87 69.08 57.11L69.08 57.11Q68.71 56.09 68.54 54.80Q68.36 53.52 68.36 51.95L68.36 51.95L68.36 48.05Q68.36 46.84 68.48 45.74Q68.59 44.65 68.87 43.73L68.87 43.73Q69.18 42.58 69.73 41.69Q70.27 40.80 71.05 40.29L71.05 40.29Q71.56 39.92 72.22 39.73Q72.87 39.53 73.63 39.53L73.63 39.53Q74.90 39.53 75.81 39.88Q76.72 40.23 77.32 40.92L77.32 40.92Q77.93 41.60 78.25 42.59Q78.57 43.57 78.67 44.84L78.67 44.84L83.77 44.84Q83.55 42.66 82.81 40.90Q82.07 39.14 80.80 37.93L80.80 37.93Q79.53 36.70 77.73 36.04Q75.94 35.37 73.63 35.37L73.63 35.37Q72.01 35.37 70.63 35.79Q69.24 36.21 68.11 36.99L68.11 36.99Q66.84 37.87 65.87 39.12Q64.90 40.37 64.30 41.95L64.30 41.95Q63.75 43.30 63.48 44.85Q63.20 46.41 63.20 48.09L63.20 48.09L63.20 51.95Q63.20 53.73 63.50 55.35Q63.79 56.97 64.36 58.34L64.36 58.34Q64.92 59.73 65.77 60.87Q66.62 62.01 67.71 62.83L67.71 62.83Q68.89 63.69 70.37 64.16Q71.86 64.63 73.61 64.63L73.61 64.63Q75.80 64.63 77.60 63.97Q79.39 63.32 80.70 62.11L80.70 62.11Q82.01 60.90 82.79 59.20Q83.57 57.50 83.75 55.39Z"></path></svg>